<?xml version="1.0" encoding="UTF-8"?>
<svg xmlns="http://www.w3.org/2000/svg" width="60" height="60">
    <path d="M 21.5 41.75 C 20.528 41.75 20.693 41.383 20.358 40.458 L 17.5 31.052 L 39.5 18" fill="rgb(200,218,234)"></path>
    <path d="M 21.5 41.75 C 22.25 41.75 22.581 41.407 23 41 L 27 37.111 L 22.011 34.102" fill="rgb(169,201,221)"></path>
    <g>
        <defs>
            <linearGradient id="idFVL3ptFGXg-1709058253" gradientTransform="rotate(58.04016008076721, 0.5, 0.5)">
                <stop offset="0" stop-color="rgb(239,247,252)" stop-opacity="1"></stop>
                <stop offset="1" stop-color="rgb(255,255,255)" stop-opacity="1"></stop>
            </linearGradient>
        </defs>
        <path d="M 23.01 34.102 L 35.1 43.035 C 36.48 43.796 37.475 43.402 37.819 41.754 L 42.74 18.563 C 43.244 16.543 41.97 15.627 40.65 16.226 L 11.753 27.369 C 9.78 28.16 9.792 29.261 11.393 29.751 L 18.809 32.066 L 35.977 21.234 C 36.788 20.743 37.532 21.007 36.921 21.549" fill="url(#idFVL3ptFGXg-1709058253)"></path>
    </g>
</svg>
