<svg xmlns="http://www.w3.org/2000/svg" width="60" height="60"><path d="M 21.5 41.75 C 20.528 41.75 20.693 41.383 20.358 40.458 L 18.5 31.5 L 40 18" fill="rgba(48, 51, 55, 1.00)"></path><path d="M 21.5 41.75 C 22.25 41.75 22.581 41.407 23 41 L 28 37 L 23 34" fill="rgba(77, 83, 97, 1.00)"></path><g><defs><linearGradient id="idOTLq37Q_9g2080590161" gradientTransform="rotate(58.04016008076721, 0.5, 0.5)"><stop offset="0" stop-color="hsl(223, 12%, 40%)" stop-opacity="1"></stop><stop offset="1" stop-color="rgba(32, 33, 34, 1.00)" stop-opacity="1"></stop></linearGradient></defs><path d="M 23.01 34.102 L 35.1 43.035 C 36.48 43.796 37.475 43.402 37.819 41.754 L 42.74 18.563 C 43.244 16.543 41.97 15.627 40.65 16.226 L 11.753 27.369 C 9.78 28.16 9.792 29.261 11.393 29.751 L 18.809 32.066 L 35.977 21.234 C 36.788 20.743 37.532 21.007 36.921 21.549" fill="url(#idOTLq37Q_9g2080590161)"></path></g></svg>