<svg xmlns="http://www.w3.org/2000/svg" width="70" height="70"><path d="M 26.88 52.78 C 43.383 52.78 52.412 39.095 52.412 27.247 C 52.412 26.862 52.412 26.477 52.395 26.092 C 54.145 24.832 55.667 23.24 56.875 21.437 C 55.265 22.155 53.532 22.627 51.712 22.855 C 53.568 21.752 54.985 19.985 55.667 17.885 C 53.935 18.917 52.01 19.652 49.963 20.055 C 48.317 18.305 45.99 17.22 43.417 17.22 C 38.465 17.22 34.44 21.245 34.44 26.197 C 34.44 26.897 34.528 27.58 34.667 28.245 C 27.212 27.877 20.597 24.29 16.17 18.865 C 15.4 20.195 14.963 21.735 14.963 23.38 C 14.963 26.495 16.555 29.242 18.952 30.852 C 17.483 30.8 16.1 30.398 14.892 29.732 L 14.892 29.855 C 14.892 34.195 17.99 37.835 22.085 38.657 C 21.332 38.867 20.545 38.972 19.722 38.972 C 19.145 38.972 18.585 38.92 18.042 38.815 C 19.18 42.385 22.505 44.975 26.425 45.045 C 23.345 47.46 19.478 48.895 15.278 48.895 C 14.56 48.895 13.842 48.86 13.142 48.772 C 17.097 51.292 21.823 52.78 26.88 52.78" fill="rgba(32, 33, 34, 1.00)"></path></svg>