<?xml version="1.0" encoding="UTF-8"?>
<svg width="190px" height="60px" viewBox="0 0 190 60" version="1.1" xmlns="http://www.w3.org/2000/svg" xmlns:xlink="http://www.w3.org/1999/xlink">
    <!-- Generator: Sketch 55 (78076) - https://sketchapp.com -->
    <title>minter-logo-grey</title>
    <desc>Created with Sketch.</desc>
    <g id="minter-logo-grey" stroke="none" stroke-width="1" fill="none" fill-rule="evenodd">
        <g id="minter-logo">
            <g id="Group" transform="translate(163.000000, 0.000000)">
                <ellipse id="Combined-Shape" fill="#D15C22" cx="13.5015621" cy="13.1845842" rx="13.2685651" ry="13.1845842"></ellipse>
                <path d="M13.4248294,11.6213717 L14.8984955,10.1929506 C15.2801262,9.82303688 15.8988718,9.82303688 16.2805026,10.1929506 C16.6621333,10.5628644 16.6621333,11.1626131 16.2805026,11.5325268 L14.1912501,13.5576342 C14.169169,13.5842496 14.145386,13.6099769 14.1199011,13.6346793 C13.7382704,14.004593 13.1195248,14.004593 12.7378941,13.6346793 L7.663832,8.71640296 C7.28220129,8.34648921 7.28220129,7.74674053 7.663832,7.37682679 C8.04546271,7.00691304 8.66420835,7.00691304 9.04583906,7.37682679 L13.4248294,11.6213717 Z M8.35483553,10.9303839 C8.89454286,10.9303839 9.3320621,11.4131865 9.3320621,12.0087537 L9.3320621,18.1914071 C9.3320621,18.7869743 8.89454286,19.2697769 8.35483553,19.2697769 C7.8151282,19.2697769 7.37760897,18.7869743 7.37760897,18.1914071 L7.37760897,12.0087537 C7.37760897,11.4131865 7.8151282,10.9303839 8.35483553,10.9303839 Z M18.6482887,7.09939148 C19.187996,7.09939148 19.6255153,7.56203114 19.6255153,8.13272609 L19.6255153,18.2364423 C19.6255153,18.8071372 19.187996,19.2697769 18.6482887,19.2697769 C18.1085814,19.2697769 17.6710621,18.8071372 17.6710621,18.2364423 L17.6710621,8.13272609 C17.6710621,7.56203114 18.1085814,7.09939148 18.6482887,7.09939148 Z" id="Combined-Shape" fill="#FFFFFF"></path>
            </g>
            <path d="M50.6729488,20.5783837 C51.746727,20.2616694 52.9550031,20.3386486 53.9427908,20.8884998 C55.3583259,21.645095 56.2557134,23.2880504 56.0594788,24.889217 C55.9470298,26.204461 55.148862,27.4295295 53.9979129,28.0761545 C52.7411294,28.8151545 51.0984913,28.7821634 49.8505273,28.040964 C48.6488658,27.3613479 47.8749518,26.0351069 47.8242395,24.6648777 C47.7073807,22.8635652 48.9619593,21.1194373 50.6729488,20.5783837 Z" id="Shape" fill="#3C3C3C" fill-rule="nonzero"></path>
            <path d="M4.81606219,22.4475997 C7.07606322,22.4833308 9.33832424,22.4252678 11.6005853,22.4788644 C14.7668467,30.860034 18.0054282,39.2166385 21.2010696,47.5888753 C24.4532111,39.2278044 27.6511126,30.8444017 30.833194,22.4565325 C33.090935,22.4609989 35.3509361,22.4498329 37.6109371,22.4654653 C39.1703378,34.279051 40.8178785,46.0792375 42.3817993,57.8928232 C40.1828183,57.89059 37.9860973,57.9106888 35.7893763,57.8816573 C34.7768958,50.295504 33.7983154,42.700418 32.7293349,35.1209644 C29.9653536,42.7160504 27.1878124,50.30667 24.4012311,57.8928232 C22.3853102,57.8928232 20.3716493,57.9062224 18.3557283,57.8861236 C15.5940071,50.2731721 12.7961258,42.6736197 10.0185846,35.0673677 C9.0264441,42.6758529 7.98458363,50.2798717 6.98114317,57.8883568 C4.65334211,57.9084556 2.32780106,57.8794241 4.8461235e-14,57.9039892 L4.8461235e-14,57.7454325 C0.578560263,54.4179765 0.92434042,51.0547893 1.41476064,47.7139341 C2.53798115,39.2903338 3.71770169,30.8734332 4.81606219,22.4475997 Z" id="Shape" fill="#3C3C3C" fill-rule="nonzero"></path>
            <path d="M100.01996,26.0832969 C100.653035,26.1487426 101.416317,25.8892163 101.964084,26.2051614 C101.988778,28.3174799 101.964084,30.4297985 101.973064,32.542117 C104.664755,32.5759683 107.358691,32.5488873 110.052628,32.5556575 C110.063852,34.7988676 110.061607,37.0420777 110.052628,39.2852877 C107.342977,39.2943147 104.633326,39.2807742 101.92143,39.2898012 C101.92592,42.3747793 101.919185,45.4620141 101.923675,48.5469921 C101.932654,49.5602731 102.083066,50.6954186 102.866552,51.4198356 C103.834125,52.3135088 105.295585,52.3428465 106.503367,52.022388 C107.529307,51.7696319 108.301569,51.009107 109.046891,50.3050008 C109.448737,52.202928 109.93589,54.0782877 110.355696,55.9717015 C109.013217,57.7658182 106.831129,58.7881262 104.626591,58.9122475 C102.77002,59.0092877 100.834875,58.7587884 99.2027989,57.8132099 C97.7660329,57.00755 96.7109078,55.6083646 96.2057947,54.0444365 C95.6333332,52.4286031 95.6063939,50.6886484 95.6221085,48.9915719 C95.6221085,45.7576484 95.6243534,42.5237248 95.6243534,39.2898012 C94.1718727,39.283031 92.719392,39.2898012 91.2669113,39.2875445 C91.3477294,38.4660873 90.984048,37.4798873 91.5969185,36.8096324 C94.4053472,33.2349394 97.2250006,29.6670168 100.01996,26.0832969 Z" id="Shape" fill="#3C3C3C" fill-rule="nonzero"></path>
            <path d="M73.9284093,31.8346034 C77.283039,31.3145444 80.9245042,32.2717219 83.3827732,34.6702697 C85.5810977,36.78413 86.5581309,39.8865506 86.5715763,42.8836145 C86.5895035,47.8891819 86.5715763,52.8925077 86.5805399,57.8980752 C84.4852968,57.9070417 82.3878129,57.9048001 80.2925699,57.8980752 C80.2791245,53.3385928 80.2992926,48.7791104 80.2836063,44.219628 C80.2791245,42.5877189 79.7838852,40.8728693 78.5379439,39.7542943 C76.1200111,37.5843931 71.9765839,38.111177 69.9351226,40.5478325 C69.4600514,41.1418653 69.0678936,41.8636713 69.0947844,42.6460014 C69.0992662,47.730026 69.0925435,52.8140506 69.0970253,57.8980752 C67.0017823,57.9070417 64.9065393,57.9048001 62.8112963,57.8980752 C62.8045736,49.3955596 62.8023327,40.893044 62.8112963,32.3882868 C64.8393122,32.3838036 66.8673282,32.3905285 68.8931033,32.3838036 C68.9020669,33.2087247 68.8975851,34.0358874 68.899826,34.8608085 C69.834282,32.9778364 71.9407295,32.0766998 73.9284093,31.8346034 Z" id="Shape" fill="#3C3C3C" fill-rule="nonzero"></path>
            <path d="M118.78237,34.9245521 C121.828506,32.1077382 126.312046,31.1160592 130.314968,32.0230555 C133.254301,32.6804606 135.839846,34.5925068 137.484181,37.0995603 C139.464504,40.0567692 140.096427,43.7538375 139.707038,47.257027 C133.425632,47.3417097 127.142001,47.2726264 120.860596,47.2926829 C121.232184,49.0754765 122.438179,50.6643913 124.144816,51.3485383 C127.168702,52.5764375 130.715483,52.3045614 133.628115,50.8872405 C134.569324,50.4571415 135.296926,49.7195107 136.066804,49.0531916 C136.663126,50.6153645 137.33065,52.153024 137.898046,53.7263393 C137.651062,54.4505993 137.010239,55.0010368 136.476219,55.5425603 C133.585838,58.0741273 129.493913,58.7694168 125.778026,58.2635491 C122.177844,57.7933373 118.700042,55.8768341 116.686343,52.8037436 C113.146238,47.3573091 113.916116,39.3369663 118.78237,34.9245521 L118.78237,34.9245521 Z M125.083801,38.3564298 C123.225858,38.8355556 121.51922,40.2172207 121.129831,42.1693797 C125.228431,42.1693797 129.327032,42.1916646 133.423407,42.1582372 C133.203124,40.9882789 132.577876,39.8963178 131.58549,39.2188562 C129.707521,37.9218739 127.23768,37.8059923 125.083801,38.3564298 Z" id="Shape" fill="#3C3C3C" fill-rule="nonzero"></path>
            <path d="M154.818445,32.4718417 C156.792995,31.3846757 159.446936,31.4026084 161.278336,32.7744549 C161.625984,33.061377 162.089515,33.4020971 161.984994,33.9131772 C161.803217,35.7647216 161.389675,37.5893672 161.187448,39.4386701 C159.694606,38.4523752 157.772317,38.122863 156.040894,38.6204936 C153.882295,39.18313 152.178138,41.3238382 152.373548,43.5564512 C152.384909,48.3377397 152.373548,53.1167867 152.380364,57.8980753 C150.255848,57.9070416 148.131332,57.9048001 146.006817,57.8980753 C145.997728,49.3957652 145.997728,40.893455 146.006817,32.3889033 C148.063166,32.3844201 150.117244,32.3911448 152.173593,32.3844201 C152.191771,33.4536534 152.166776,34.5228867 152.184954,35.5898785 C152.74619,34.3390772 153.561913,33.130866 154.818445,32.4718417 Z" id="Shape" fill="#3C3C3C" fill-rule="nonzero"></path>
            <path d="M48.8504015,32.7248141 C50.8973549,32.7496305 52.9464929,32.7338382 54.9934463,32.7338382 C55.0021846,41.295519 55.0021846,49.8549437 54.9934463,58.4143684 C52.950862,58.4143684 50.9060932,58.4256486 48.8613244,58.4076002 C48.8613244,49.8481755 48.8831702,41.2864948 48.8504015,32.7248141 Z" id="Shape" fill="#3C3C3C" fill-rule="nonzero"></path>
        </g>
    </g>
</svg>