<svg fill="none" height="40" viewBox="0 0 40 40" width="40" xmlns="http://www.w3.org/2000/svg"><path d="m20 40c11.0457 0 20-8.9543 20-20s-8.9543-20-20-20-20 8.9543-20 20 8.9543 20 20 20z" fill="#d15c22"/><path clip-rule="evenodd" d="m29.9967 12.0534c0-.9132-.7001-1.6534-1.5636-1.6534s-1.5636.7402-1.5636 1.6534v16.1659c0 .9131.7001 1.6533 1.5636 1.6533s1.5636-.7402 1.5636-1.6533zm-9.9211 5.5818 2.3578-2.2855c.6107-.5918 1.6006-.5918 2.2113 0 .6106.5919.6106 1.5515 0 2.1433l-3.3428 3.2402c-.0354.0426-.0734.0838-.1142.1233-.6106.5918-1.6006.5918-2.2112 0l-8.1185-7.8693c-.6106-.5918-.6106-1.5514 0-2.1433.6106-.5918 1.6006-.5918 2.2112 0zm-8.112-1.1056c.8635 0 1.5635.7725 1.5635 1.7254v9.8922c0 .953-.7 1.7254-1.5635 1.7254s-1.5636-.7724-1.5636-1.7254v-9.8922c0-.9529.7001-1.7254 1.5636-1.7254z" fill="#fff" fill-rule="evenodd"/></svg>